<?xml version="1.0" standalone="no"?>
<!DOCTYPE svg PUBLIC "-//W3C//DTD SVG 20010904//EN"
 "http://www.w3.org/TR/2001/REC-SVG-20010904/DTD/svg10.dtd">
<svg version="1.0" xmlns="http://www.w3.org/2000/svg"
 width="700.000000pt" height="700.000000pt" viewBox="0 0 700.000000 700.000000"
 preserveAspectRatio="xMidYMid meet">
<metadata>
Created by potrace 1.11, written by Peter Selinger 2001-2013
</metadata>
<g transform="translate(0.000000,700.000000) scale(0.100000,-0.100000)"
fill="#000000" stroke="none">
<path d="M3425 6979 c-22 -12 -244 -138 -494 -281 -249 -143 -469 -268 -487
-279 -19 -10 -51 -29 -71 -40 -21 -12 -56 -32 -78 -44 -33 -19 -262 -150 -412
-236 -18 -11 -50 -29 -70 -40 -21 -12 -83 -47 -138 -79 -55 -32 -118 -68 -140
-80 -22 -12 -164 -94 -316 -181 -152 -87 -293 -167 -313 -179 -107 -60 -373
-212 -431 -246 -27 -16 -63 -36 -79 -44 -54 -27 -94 -76 -101 -122 -3 -24 -5
-772 -3 -1663 3 -1602 3 -1620 23 -1648 18 -24 74 -62 185 -124 19 -11 163
-93 320 -183 157 -90 299 -171 315 -180 17 -10 95 -55 175 -100 80 -46 159
-91 176 -101 18 -9 127 -72 244 -139 117 -67 226 -130 244 -139 36 -21 796
-456 841 -481 106 -61 308 -177 350 -200 28 -15 102 -58 165 -94 166 -97 170
-97 340 -1 138 79 546 312 1040 595 151 87 298 170 325 185 28 16 67 39 87 52
21 12 40 23 43 23 2 0 34 18 70 40 36 22 67 40 69 40 2 0 55 30 117 66 63 36
139 79 169 96 30 17 60 34 65 38 6 4 30 18 55 32 171 94 921 526 946 545 18
13 36 39 42 62 9 28 12 460 12 1661 0 1839 9 1666 -86 1726 -29 19 -56 34 -60
34 -4 0 -15 6 -23 14 -9 7 -41 27 -71 43 -30 16 -152 85 -270 153 -421 241
-495 284 -535 305 -22 13 -80 45 -128 74 -49 28 -91 51 -95 51 -3 0 -13 6 -21
14 -9 7 -45 29 -81 48 -36 20 -105 59 -155 88 -49 29 -108 62 -130 74 -22 12
-137 78 -255 146 -118 68 -244 140 -280 160 -36 20 -162 92 -280 160 -118 68
-233 134 -255 146 -22 11 -91 51 -154 88 -62 36 -115 66 -118 66 -2 0 -27 15
-56 33 -109 68 -169 80 -232 46z"/>
</g>
</svg>
